<svg width="36" height="34" viewBox="0 0 36 34" fill="none" xmlns="http://www.w3.org/2000/svg">
<g id="right-arrow 1" clip-path="url(#clip0_77_22)">
<g id="Group">
<g id="Group_2">
<path id="Vector" d="M35.4316 16.4793L27.351 9.09303C27.0608 8.78321 26.5506 8.74709 26.2117 9.01248C25.8727 9.27781 25.8332 9.7441 26.1235 10.0539C26.1506 10.0828 26.1801 10.1098 26.2117 10.1345L32.9105 16.2651H0.919125C0.472883 16.2651 0.111084 16.5958 0.111084 17.0037C0.111084 17.4117 0.472883 17.7423 0.919125 17.7423H32.9105L26.2117 23.8655C25.8727 24.1308 25.8332 24.5971 26.1235 24.9069C26.4139 25.2168 26.924 25.2529 27.2629 24.9875C27.2945 24.9627 27.324 24.9358 27.351 24.9069L35.4317 17.5207C35.745 17.2327 35.745 16.7674 35.4316 16.4793Z" fill="white"/>
</g>
</g>
</g>
<defs>
<clipPath id="clip0_77_22">
<rect width="35.5556" height="32.5" fill="white" transform="translate(0.111084 0.75)"/>
</clipPath>
</defs>
</svg>
