<svg width="15" height="15" viewBox="0 0 15 15" fill="none" xmlns="http://www.w3.org/2000/svg">
<g id="up-right-arrow 1" clip-path="url(#clip0_94_17)">
<path id="Vector" d="M15 0.638818V10.342C15 10.6948 14.714 10.9808 14.3612 10.9808C14.0084 10.9808 13.7224 10.6948 13.7224 10.342V2.18118L1.09058 14.8129C0.965801 14.9377 0.802354 15 0.638848 15C0.475342 15 0.311895 14.9377 0.187119 14.8129C-0.062373 14.5634 -0.062373 14.1589 0.187119 13.9095L12.8189 1.27764H4.658C4.3052 1.27764 4.01918 0.991611 4.01918 0.638818C4.01918 0.286025 4.3052 2.25017e-09 4.658 2.25017e-09H14.3612C14.714 -2.92946e-05 15 0.286025 15 0.638818Z" fill="#4A4647"/>
</g>
<defs>
<clipPath id="clip0_94_17">
<rect width="15" height="15" fill="white"/>
</clipPath>
</defs>
</svg>
