<svg width="40" height="21" viewBox="0 0 40 21" fill="none" xmlns="http://www.w3.org/2000/svg">
<path id="Vector" d="M0.264362 10.6903L9.35506 19.781C9.68162 20.1624 10.2555 20.2068 10.6368 19.8802C11.0182 19.5536 11.0626 18.9797 10.736 18.5984C10.7055 18.5629 10.6724 18.5297 10.6368 18.4993L3.10064 10.9539L39.091 10.9539C39.593 10.9539 40 10.5469 40 10.0448C40 9.5427 39.593 9.13575 39.091 9.13575L3.10064 9.13575L10.6368 1.59956C11.0182 1.273 11.0626 0.6991 10.736 0.31778C10.4093 -0.0635414 9.83552 -0.107992 9.4542 0.218641C9.41866 0.249111 9.38545 0.282234 9.35506 0.31778L0.264282 9.40856C-0.0881348 9.76301 -0.088131 10.3357 0.264362 10.6903Z" fill="#4A4647"/>
</svg>
