<svg width="40" height="22" viewBox="0 0 40 22" fill="none" xmlns="http://www.w3.org/2000/svg">
<path d="M39.7356 10.3591L30.6449 1.26834C30.3184 0.887019 29.7445 0.842567 29.3632 1.1692C28.9818 1.49576 28.9374 2.06965 29.264 2.45098C29.2945 2.48652 29.3276 2.51972 29.3632 2.55011L36.8994 10.0955H0.909047C0.407024 10.0955 0 10.5025 0 11.0046C0 11.5067 0.407024 11.9136 0.909047 11.9136H36.8994L29.3632 19.4498C28.9818 19.7764 28.9374 20.3503 29.264 20.7316C29.5907 21.1129 30.1645 21.1574 30.5458 20.8307C30.5813 20.8003 30.6145 20.7671 30.6449 20.7316L39.7357 11.6408C40.0881 11.2864 40.0881 10.7137 39.7356 10.3591Z" fill="#4A4647"/>
</svg>
